<svg width="86" height="14" viewBox="0 0 86 14" fill="none" xmlns="http://www.w3.org/2000/svg">
<path d="M7 0L8.5716 4.83688H13.6574L9.5429 7.82624L11.1145 12.6631L7 9.67376L2.8855 12.6631L4.4571 7.82624L0.342604 4.83688H5.4284L7 0Z" fill="#67C944"/>
<path d="M25 0L26.5716 4.83688H31.6574L27.5429 7.82624L29.1145 12.6631L25 9.67376L20.8855 12.6631L22.4571 7.82624L18.3426 4.83688H23.4284L25 0Z" fill="#67C944"/>
<path d="M43 0L44.5716 4.83688H49.6574L45.5429 7.82624L47.1145 12.6631L43 9.67376L38.8855 12.6631L40.4571 7.82624L36.3426 4.83688H41.4284L43 0Z" fill="#67C944"/>
<path d="M61 0L62.5716 4.83688H67.6574L63.5429 7.82624L65.1145 12.6631L61 9.67376L56.8855 12.6631L58.4571 7.82624L54.3426 4.83688H59.4284L61 0Z" fill="#67C944"/>
<path d="M79 0L80.5716 4.83688H85.6574L81.5429 7.82624L83.1145 12.6631L79 9.67376L74.8855 12.6631L76.4571 7.82624L72.3426 4.83688H77.4284L79 0Z" fill="#F2F2F2"/>
</svg>
