<svg width="68" height="68" viewBox="0 0 68 68" fill="none" xmlns="http://www.w3.org/2000/svg">
<rect width="68" height="68" rx="16" fill="#67C944" fill-opacity="0.1"/>
<path d="M37 36L40 39" stroke="#67C944" stroke-width="3" stroke-linecap="round" stroke-linejoin="round"/>
<path d="M28 32C28 34.7614 30.2386 37 33 37C34.3832 37 35.635 36.4384 36.5402 35.5308C37.4422 34.6264 38 33.3784 38 32C38 29.2386 35.7614 27 33 27C30.2386 27 28 29.2386 28 32Z" stroke="#67C944" stroke-width="3" stroke-linecap="round" stroke-linejoin="round"/>
<path d="M20 46L16.2607 19.825C16.1129 18.7904 16.7878 17.8249 17.808 17.5982L33.1322 14.1928C33.7038 14.0658 34.2962 14.0658 34.8678 14.1928L50.192 17.5982C51.2122 17.8249 51.887 18.7904 51.7392 19.825L48 46C47.8586 46.99 47 53 34 53C21 53 20.1414 46.99 20 46Z" stroke="#67C944" stroke-width="3" stroke-linecap="round" stroke-linejoin="round"/>
</svg>
