<svg width="14" height="15" viewBox="0 0 14 15" fill="none" xmlns="http://www.w3.org/2000/svg">
<path d="M1 6.5C0.447715 6.5 0 6.94772 0 7.5C0 8.05228 0.447715 8.5 1 8.5V6.5ZM13.7071 8.20711C14.0976 7.81658 14.0976 7.18342 13.7071 6.79289L7.34315 0.428932C6.95262 0.0384078 6.31946 0.0384078 5.92893 0.428932C5.53841 0.819457 5.53841 1.45262 5.92893 1.84315L11.5858 7.5L5.92893 13.1569C5.53841 13.5474 5.53841 14.1805 5.92893 14.5711C6.31946 14.9616 6.95262 14.9616 7.34315 14.5711L13.7071 8.20711ZM1 8.5H13V6.5H1V8.5Z" fill="black"/>
</svg>
