<svg width="68" height="68" viewBox="0 0 68 68" fill="none" xmlns="http://www.w3.org/2000/svg">
<rect width="68" height="68" rx="16" fill="#67C944" fill-opacity="0.1"/>
<path d="M50 45.2146C52.9874 44.0442 56 41.3778 56 36C56 28 49.3334 26 46 26C46 22 46 14 34 14C22 14 22 22 22 26C18.6667 26 12 28 12 36C12 41.3778 15.0126 44.0442 18 45.2146" stroke="#67C944" stroke-width="3" stroke-linecap="round" stroke-linejoin="round"/>
<path d="M34.9702 37.1194L41.091 38.6497C41.6252 38.7832 42.0022 39.2698 41.9874 39.8203C41.6352 52.8763 34 54.8769 34 54.8769C34 54.8769 26.3648 52.8763 26.0126 39.8203C25.9977 39.2698 26.3748 38.7832 26.909 38.6497L33.0298 37.1194C33.6668 36.9602 34.3332 36.9602 34.9702 37.1194Z" stroke="#67C944" stroke-width="3" stroke-linecap="round" stroke-linejoin="round"/>
</svg>
