<svg width="80" height="31" viewBox="0 0 80 31" fill="none" xmlns="http://www.w3.org/2000/svg">
<path d="M0.529656 24L6.67366 6.96H12.0257L18.1697 24H13.3697L12.4097 21.192H6.26566L5.30566 24H0.529656ZM7.51366 17.544H11.1857L9.36166 12.144L7.51366 17.544ZM22.3065 24L16.1625 6.96H20.9625L24.9945 18.672L29.0265 6.96H33.8265L27.6345 24H22.3065ZM31.8187 24L37.9627 6.96H43.3147L49.4587 24H44.6587L43.6987 21.192H37.5547L36.5947 24H31.8187ZM38.8027 17.544H42.4747L40.6507 12.144L38.8027 17.544ZM57.515 24.384C55.947 24.384 54.611 24.136 53.507 23.64C52.403 23.144 51.547 22.44 50.939 21.528C50.331 20.616 49.987 19.536 49.907 18.288L54.587 18.072C54.667 18.632 54.827 19.112 55.067 19.512C55.307 19.896 55.627 20.192 56.027 20.4C56.443 20.592 56.955 20.688 57.563 20.688C58.043 20.688 58.451 20.64 58.787 20.544C59.123 20.432 59.379 20.264 59.555 20.04C59.731 19.816 59.819 19.536 59.819 19.2C59.819 18.896 59.739 18.632 59.579 18.408C59.435 18.168 59.139 17.96 58.691 17.784C58.259 17.592 57.611 17.408 56.747 17.232C55.195 16.912 53.939 16.544 52.979 16.128C52.019 15.696 51.315 15.144 50.867 14.472C50.435 13.8 50.219 12.944 50.219 11.904C50.219 10.848 50.491 9.92 51.035 9.12C51.579 8.32 52.363 7.696 53.387 7.248C54.411 6.8 55.643 6.576 57.083 6.576C58.603 6.576 59.875 6.832 60.899 7.344C61.923 7.856 62.715 8.56 63.275 9.456C63.851 10.352 64.195 11.392 64.307 12.576L59.675 12.768C59.643 12.24 59.515 11.792 59.291 11.424C59.067 11.056 58.763 10.776 58.379 10.584C58.011 10.376 57.563 10.272 57.035 10.272C56.363 10.272 55.843 10.408 55.475 10.68C55.107 10.952 54.923 11.312 54.923 11.76C54.923 12.112 55.011 12.408 55.187 12.648C55.379 12.888 55.683 13.088 56.099 13.248C56.531 13.408 57.115 13.552 57.851 13.68C59.531 13.968 60.859 14.36 61.835 14.856C62.811 15.352 63.499 15.944 63.899 16.632C64.315 17.32 64.523 18.112 64.523 19.008C64.523 20.112 64.243 21.072 63.683 21.888C63.139 22.688 62.339 23.304 61.283 23.736C60.243 24.168 58.987 24.384 57.515 24.384ZM69.9697 24V10.728H65.0017V6.96H79.6657V10.728H74.6977V24H69.9697Z" fill="#2D2D2D"/>
<path d="M13.485 24.5H16.7028C17.6863 24.5 18.4037 23.5694 18.1534 22.6183L13.0022 3.04358C12.7624 2.13253 11.7521 1.6654 10.9027 2.07292L7.55051 3.68129C6.88741 3.99945 6.55279 4.75146 6.76037 5.45704L12.046 23.4234C12.2338 24.0617 12.8197 24.5 13.485 24.5Z" fill="white" stroke="white"/>
<path fill-rule="evenodd" clip-rule="evenodd" d="M9.9373 8.7322L11.4958 8.28692C12.0432 8.13052 12.3498 7.54929 12.1697 7.00917L11.7877 5.86325C11.6246 5.37389 11.116 5.08889 10.6135 5.20525L9.05154 5.56688C8.48423 5.69823 8.14869 6.28462 8.32289 6.84027L8.70838 8.06983C8.87062 8.58734 9.41582 8.88119 9.9373 8.7322ZM14.2121 24H17.0512C17.751 24 18.2344 23.2997 17.9862 22.6453L13.3533 10.4315C13.158 9.91647 12.5829 9.6564 12.0672 9.8498L9.91273 10.6577C9.40492 10.8482 9.14146 11.4087 9.31887 11.9212L13.2671 23.3271C13.4065 23.7299 13.7859 24 14.2121 24Z" fill="#67C944"/>
</svg>
