<svg width="35" height="35" viewBox="0 0 35 35" fill="none" xmlns="http://www.w3.org/2000/svg">
<rect width="34.5882" height="34.5882" rx="8.47059" fill="#F1F1F1"/>
<path d="M12.2941 27.2939H22.2941" stroke="black" stroke-width="1.5" stroke-linecap="round" stroke-linejoin="round"/>
<path d="M7.29413 22.2939V9.29395C7.29413 8.18938 8.18956 7.29395 9.29413 7.29395H25.2941C26.3987 7.29395 27.2941 8.18938 27.2941 9.29395V22.2939C27.2941 23.3985 26.3987 24.2939 25.2941 24.2939H9.29413C8.18956 24.2939 7.29413 23.3985 7.29413 22.2939Z" stroke="black" stroke-width="1.5"/>
<path d="M17.7792 11.4153L20.8396 12.1804C21.1067 12.2472 21.2952 12.4905 21.2878 12.7657C21.1117 19.2937 17.2941 20.294 17.2941 20.294C17.2941 20.294 13.4765 19.2937 13.3004 12.7657C13.293 12.4905 13.4815 12.2472 13.7486 12.1804L16.809 11.4153C17.1275 11.3357 17.4607 11.3357 17.7792 11.4153Z" stroke="black" stroke-width="1.5" stroke-linecap="round" stroke-linejoin="round"/>
</svg>
