<svg width="40" height="40" viewBox="0 0 40 40" fill="none" xmlns="http://www.w3.org/2000/svg">
<rect width="40" height="40" rx="6.66667" fill="#F1F1F1"/>
<g clip-path="url(#clip0_53_688)">
<path d="M8.53963 19.3036C15.0188 16.4814 19.3382 14.6207 21.4979 13.7217C27.6715 11.1547 28.9527 10.7088 29.7894 10.6937C29.9736 10.6908 30.3833 10.7363 30.6506 10.9524C30.8729 11.1347 30.9353 11.3812 30.9665 11.5543C30.9944 11.7272 31.0325 12.1213 31.0012 12.429C30.6679 15.9429 29.2201 24.4699 28.484 28.4056C28.1749 30.0709 27.5604 30.6292 26.9666 30.6837C25.6749 30.8025 24.6958 29.8309 23.4457 29.0119C21.4909 27.7295 20.3868 26.9317 18.4875 25.6806C16.2931 24.2348 17.7167 23.44 18.9666 22.1413C19.2931 21.8015 24.9806 16.6296 25.0881 16.1605C25.102 16.1019 25.116 15.8831 24.984 15.7679C24.8555 15.6521 24.6645 15.6918 24.5257 15.7231C24.3278 15.7675 21.2063 17.8328 15.1507 21.9184C14.2653 22.5275 13.4632 22.8244 12.741 22.8087C11.9493 22.7918 10.4216 22.3601 9.28615 21.9914C7.89727 21.539 6.78964 21.2998 6.88687 20.5314C6.93547 20.1314 7.48755 19.722 8.53963 19.3036Z" fill="#2D2D2D"/>
</g>
<defs>
<clipPath id="clip0_53_688">
<rect width="26.6667" height="26.6667" fill="white" transform="translate(6.66669 6.66675)"/>
</clipPath>
</defs>
</svg>
