<svg width="24" height="25" viewBox="0 0 24 25" fill="none" xmlns="http://www.w3.org/2000/svg">
<rect y="0.5" width="24" height="24" rx="8" fill="#F1F1F1"/>
<path d="M8.66663 13.8334C7.56206 13.8334 6.66663 14.7288 6.66663 15.8334C6.66663 16.938 7.56206 17.8334 8.66663 17.8334C8.90039 17.8334 9.12477 17.7932 9.33329 17.7196" stroke="black" stroke-linecap="round" stroke-linejoin="round"/>
<path d="M6.84263 14.903C5.94955 14.4721 5.33337 13.5579 5.33337 12.4999C5.33337 11.6921 5.69253 10.9683 6.25987 10.4792" stroke="black" stroke-linecap="round" stroke-linejoin="round"/>
<path d="M6.28035 10.4255C6.10327 10.1608 6 9.84246 6 9.50004C6 8.57957 6.74619 7.83337 7.66667 7.83337C8.04194 7.83337 8.38825 7.9574 8.66683 8.16671" stroke="black" stroke-linecap="round" stroke-linejoin="round"/>
<path d="M8.82509 8.21026C8.72345 7.99481 8.66663 7.75406 8.66663 7.50004C8.66663 6.57957 9.41282 5.83337 10.3333 5.83337C11.2538 5.83337 12 6.57957 12 7.50004V17.8334" stroke="black" stroke-linecap="round" stroke-linejoin="round"/>
<path d="M9.33337 17.8334C9.33337 18.5698 9.93033 19.1667 10.6667 19.1667C11.4031 19.1667 12 18.5698 12 17.8334" stroke="black" stroke-linecap="round" stroke-linejoin="round"/>
<path d="M12 9.16663C12 10.2712 12.8954 11.1666 14 11.1666" stroke="black" stroke-linecap="round" stroke-linejoin="round"/>
<path d="M15.3333 13.8334C16.4379 13.8334 17.3333 14.7288 17.3333 15.8334C17.3333 16.938 16.4379 17.8334 15.3333 17.8334C15.0996 17.8334 14.8752 17.7932 14.6666 17.7196" stroke="black" stroke-linecap="round" stroke-linejoin="round"/>
<path d="M17.1574 14.903C18.0505 14.4721 18.6667 13.5579 18.6667 12.4999C18.6667 11.6921 18.3075 10.9683 17.7401 10.4792" stroke="black" stroke-linecap="round" stroke-linejoin="round"/>
<path d="M17.7197 10.4255C17.8967 10.1608 18 9.84246 18 9.50004C18 8.57957 17.2538 7.83337 16.3333 7.83337C15.9581 7.83337 15.6117 7.9574 15.3332 8.16671" stroke="black" stroke-linecap="round" stroke-linejoin="round"/>
<path d="M12 7.50004C12 6.57957 12.7462 5.83337 13.6667 5.83337C14.5871 5.83337 15.3333 6.57957 15.3333 7.50004C15.3333 7.75406 15.2765 7.99481 15.1749 8.21026" stroke="black" stroke-linecap="round" stroke-linejoin="round"/>
<path d="M14.6667 17.8334C14.6667 18.5698 14.0697 19.1667 13.3333 19.1667C12.5969 19.1667 12 18.5698 12 17.8334" stroke="black" stroke-linecap="round" stroke-linejoin="round"/>
</svg>
