<svg width="16" height="16" viewBox="0 0 16 16" fill="none" xmlns="http://www.w3.org/2000/svg">
<path fill-rule="evenodd" clip-rule="evenodd" d="M6.41082 2.42791C7.11577 1.20195 8.88457 1.20195 9.58944 2.42791L14.9514 11.753C15.6542 12.9753 14.772 14.5002 13.3621 14.5002H2.63818C1.22832 14.5002 0.346077 12.9753 1.04885 11.753L6.41082 2.42791ZM8.00004 5.49997C8.27617 5.49997 8.50004 5.72383 8.50004 5.99997V8.66664C8.50004 8.94277 8.27617 9.16664 8.00004 9.16664C7.72391 9.16664 7.50004 8.94277 7.50004 8.66664V5.99997C7.50004 5.72383 7.72391 5.49997 8.00004 5.49997ZM8.37837 11.6672C8.56311 11.4619 8.54644 11.1458 8.34117 10.961C8.13591 10.7763 7.81977 10.7929 7.63504 10.9982L7.62837 11.0056C7.44364 11.2108 7.46031 11.527 7.66557 11.7117C7.87084 11.8964 8.18697 11.8798 8.37171 11.6746L8.37837 11.6672Z" fill="#67C944"/>
</svg>
