<svg width="24" height="25" viewBox="0 0 24 25" fill="none" xmlns="http://www.w3.org/2000/svg">
<rect y="0.5" width="24" height="24" rx="8" fill="#F1F1F1"/>
<path d="M13 13.1666L14 14.1666" stroke="#2D2D2D" stroke-linecap="round" stroke-linejoin="round"/>
<path d="M10 11.8333C10 12.7538 10.7462 13.5 11.6667 13.5C12.1277 13.5 12.545 13.3128 12.8467 13.0102C13.1474 12.7088 13.3333 12.2928 13.3333 11.8333C13.3333 10.9128 12.5871 10.1666 11.6667 10.1666C10.7462 10.1666 10 10.9128 10 11.8333Z" stroke="#2D2D2D" stroke-linecap="round" stroke-linejoin="round"/>
<path d="M7.33339 16.5L6.08696 7.77501C6.03769 7.43015 6.26265 7.1083 6.60271 7.03273L11.7108 5.89759C11.9013 5.85526 12.0988 5.85526 12.2893 5.89759L17.3974 7.03273C17.7375 7.1083 17.9624 7.43015 17.9131 7.775L16.6667 16.5C16.6196 16.83 16.3334 18.8333 12.0001 18.8333C7.66672 18.8333 7.38053 16.83 7.33339 16.5Z" stroke="#2D2D2D" stroke-linecap="round" stroke-linejoin="round"/>
</svg>
