<svg width="24" height="25" viewBox="0 0 24 25" fill="none" xmlns="http://www.w3.org/2000/svg">
<rect y="0.5" width="24" height="24" rx="8" fill="#F1F1F1"/>
<path d="M11.0571 11.5571L15.2997 9.20007L12.9427 13.4427M11.0571 11.5571L8.70007 15.7997L12.9427 13.4427M11.0571 11.5571L12.9427 13.4427" stroke="black" stroke-linecap="round" stroke-linejoin="round"/>
<path d="M12 19.1667C15.6818 19.1667 18.6666 16.1819 18.6666 12.5C18.6666 8.81814 15.6818 5.83337 12 5.83337C8.31808 5.83337 5.33331 8.81814 5.33331 12.5C5.33331 16.1819 8.31808 19.1667 12 19.1667Z" stroke="black" stroke-linecap="round" stroke-linejoin="round"/>
<path d="M16.6667 12.5H16" stroke="black" stroke-linecap="round" stroke-linejoin="round"/>
<path d="M7.99998 12.5H7.33331" stroke="black" stroke-linecap="round" stroke-linejoin="round"/>
<path d="M12 7.83337V8.50004" stroke="black" stroke-linecap="round" stroke-linejoin="round"/>
<path d="M12 16.5V17.1667" stroke="black" stroke-linecap="round" stroke-linejoin="round"/>
<path d="M8.7002 9.2002L9.1716 9.6716" stroke="black" stroke-linecap="round" stroke-linejoin="round"/>
<path d="M14.8285 15.3285L15.2999 15.7999" stroke="black" stroke-linecap="round" stroke-linejoin="round"/>
</svg>
