<svg width="24" height="25" viewBox="0 0 24 25" fill="none" xmlns="http://www.w3.org/2000/svg">
<rect y="0.5" width="24" height="24" rx="8" fill="#F1F1F1"/>
<path d="M17.3333 16.2382C18.3291 15.8481 19.3333 14.9593 19.3333 13.1667C19.3333 10.5 17.1111 9.83337 16 9.83337C16 8.50004 16 5.83337 12 5.83337C7.99996 5.83337 7.99996 8.50004 7.99996 9.83337C6.88885 9.83337 4.66663 10.5 4.66663 13.1667C4.66663 14.9593 5.67081 15.8481 6.66663 16.2382" stroke="black" stroke-linecap="round" stroke-linejoin="round"/>
<path d="M14.9468 17.4916L13.7683 18.6701C12.7269 19.7115 11.0384 19.7115 9.99705 18.6701L9.76135 18.4344" stroke="black" stroke-linecap="round" stroke-linejoin="round"/>
<path d="M14.7111 19.1415L14.9469 17.4916L13.2969 17.7273L14.7111 19.1415Z" stroke="black" stroke-linecap="round" stroke-linejoin="round"/>
<path d="M9.05371 15.7677L10.2322 14.5893C11.2737 13.5479 12.9621 13.5479 14.0035 14.5893L14.2392 14.8249" stroke="black" stroke-linecap="round" stroke-linejoin="round"/>
<path d="M9.28941 14.1179L9.05371 15.7679L10.7036 15.5321L9.28941 14.1179Z" stroke="black" stroke-linecap="round" stroke-linejoin="round"/>
</svg>
