<svg width="35" height="36" viewBox="0 0 35 36" fill="none" xmlns="http://www.w3.org/2000/svg">
<rect y="0.764648" width="34.5882" height="34.5882" rx="8.47059" fill="#F1F1F1"/>
<path d="M9.29413 17.5585L8.80906 17.6798C7.91872 17.9024 7.29413 18.7023 7.29413 19.6201V21.4969C7.29413 22.4147 7.91872 23.2146 8.80906 23.4372L10.5486 23.8721C10.9273 23.9668 11.2941 23.6804 11.2941 23.29V17.827C11.2941 17.4366 10.9273 17.1502 10.5486 17.2449L9.29413 17.5585ZM9.29413 17.5585V17.0587C9.29413 12.6404 12.8758 9.05872 17.2941 9.05872C21.7124 9.05872 25.2941 12.6404 25.2941 17.0587V17.5585M25.2941 17.5585L25.7792 17.6798C26.6695 17.9024 27.2941 18.7023 27.2941 19.6201V21.4969C27.2941 22.4147 26.6695 23.2146 25.7792 23.4372L25.2941 23.5585M25.2941 17.5585L24.0396 17.2449C23.6609 17.1502 23.2941 17.4366 23.2941 17.827V23.29C23.2941 23.6804 23.6609 23.9668 24.0396 23.8721L25.2941 23.5585M25.2941 23.5585V24.0587V24.5587C25.2941 25.6633 24.3987 26.5587 23.2941 26.5587H20.2941M20.2941 26.5587C20.2941 25.7303 19.6225 25.0587 18.7941 25.0587H15.7941C14.9657 25.0587 14.2941 25.7303 14.2941 26.5587C14.2941 27.3871 14.9657 28.0587 15.7941 28.0587H18.7941C19.6225 28.0587 20.2941 27.3871 20.2941 26.5587Z" stroke="black" stroke-width="1.5"/>
</svg>
